<?xml version="1.0" encoding="UTF-8"?>
<svg xmlns="http://www.w3.org/2000/svg" width="313" height="101" viewBox="0 0 313 101" role="img" aria-label="ValuCar logo">
  <path d="M 21.00 83.00 L 26.00 87.00 L 29.00 88.00 L 31.00 90.00 L 32.00 90.00 L 39.00 94.00 L 41.00 94.00 L 42.00 95.00 L 44.00 95.00 L 45.00 96.00 L 47.00 96.00 L 48.00 97.00 L 52.00 97.00 L 53.00 98.00 L 59.00 98.00 L 60.00 99.00 L 71.00 99.00 L 72.00 98.00 L 78.00 98.00 L 79.00 97.00 L 82.00 97.00 L 83.00 96.00 L 86.00 96.00 L 87.00 95.00 L 92.00 94.00 L 93.00 93.00 L 94.00 93.00 L 95.00 92.00 L 96.00 92.00 L 97.00 91.00 L 104.00 88.00 L 106.00 86.00 L 107.00 86.00 L 109.00 84.00 L 110.00 84.00 L 110.00 83.00 L 109.00 83.00 L 108.00 84.00 L 106.00 84.00 L 103.00 86.00 L 98.00 87.00 L 95.00 89.00 L 92.00 89.00 L 91.00 90.00 L 88.00 90.00 L 87.00 91.00 L 84.00 91.00 L 83.00 92.00 L 79.00 92.00 L 78.00 93.00 L 70.00 93.00 L 69.00 94.00 L 65.00 94.00 L 64.00 93.00 L 53.00 93.00 L 52.00 92.00 L 48.00 92.00 L 47.00 91.00 L 43.00 91.00 L 42.00 90.00 L 39.00 90.00 L 38.00 89.00 L 33.00 88.00 L 32.00 87.00 L 31.00 87.00 L 30.00 86.00 L 28.00 86.00 L 23.00 83.00 Z
    M 271.00 67.00 L 271.00 68.00 L 270.00 69.00 L 270.00 73.00 L 269.00 74.00 L 269.00 78.00 L 268.00 79.00 L 268.00 83.00 L 267.00 84.00 L 267.00 87.00 L 266.00 88.00 L 266.00 90.00 L 271.00 90.00 L 271.00 86.00 L 272.00 85.00 L 272.00 82.00 L 273.00 81.00 L 277.00 81.00 L 278.00 82.00 L 278.00 85.00 L 279.00 86.00 L 279.00 90.00 L 284.00 90.00 L 283.00 89.00 L 283.00 82.00 L 282.00 81.00 L 282.00 79.00 L 283.00 78.00 L 284.00 78.00 L 286.00 75.00 L 286.00 70.00 L 282.00 67.00 Z
    M 274.00 76.00 L 274.00 72.00 L 275.00 71.00 L 280.00 71.00 L 282.00 73.00 L 282.00 74.00 L 279.00 77.00 L 275.00 77.00 Z
    M 259.00 67.00 L 253.00 67.00 L 250.00 74.00 L 248.00 76.00 L 248.00 77.00 L 247.00 78.00 L 245.00 83.00 L 243.00 85.00 L 241.00 90.00 L 246.00 90.00 L 247.00 87.00 L 249.00 85.00 L 256.00 85.00 L 258.00 88.00 L 258.00 90.00 L 262.00 90.00 L 262.00 84.00 L 261.00 83.00 L 261.00 76.00 L 260.00 75.00 L 260.00 69.00 L 259.00 68.00 Z
    M 255.00 73.00 L 256.00 74.00 L 256.00 78.00 L 257.00 79.00 L 257.00 80.00 L 256.00 81.00 L 252.00 81.00 L 251.00 80.00 Z
    M 238.00 67.00 L 231.00 67.00 L 230.00 68.00 L 227.00 69.00 L 223.00 73.00 L 223.00 75.00 L 222.00 76.00 L 222.00 78.00 L 221.00 79.00 L 221.00 84.00 L 222.00 85.00 L 222.00 87.00 L 225.00 90.00 L 227.00 90.00 L 228.00 91.00 L 233.00 91.00 L 234.00 90.00 L 236.00 90.00 L 240.00 86.00 L 240.00 84.00 L 237.00 82.00 L 236.00 83.00 L 236.00 84.00 L 232.00 87.00 L 229.00 87.00 L 226.00 84.00 L 226.00 78.00 L 227.00 77.00 L 228.00 74.00 L 230.00 72.00 L 231.00 72.00 L 232.00 71.00 L 236.00 71.00 L 239.00 74.00 L 240.00 74.00 L 243.00 72.00 L 242.00 71.00 L 242.00 70.00 Z
    M 201.00 67.00 L 200.00 68.00 L 200.00 71.00 L 199.00 72.00 L 199.00 76.00 L 198.00 77.00 L 198.00 81.00 L 197.00 82.00 L 197.00 85.00 L 198.00 86.00 L 198.00 88.00 L 200.00 90.00 L 202.00 90.00 L 203.00 91.00 L 208.00 91.00 L 209.00 90.00 L 211.00 90.00 L 214.00 88.00 L 214.00 87.00 L 216.00 84.00 L 216.00 81.00 L 217.00 80.00 L 217.00 77.00 L 218.00 76.00 L 218.00 72.00 L 219.00 71.00 L 219.00 67.00 L 215.00 67.00 L 215.00 69.00 L 214.00 70.00 L 214.00 73.00 L 213.00 74.00 L 213.00 78.00 L 212.00 79.00 L 212.00 82.00 L 211.00 83.00 L 211.00 84.00 L 208.00 87.00 L 204.00 87.00 L 202.00 85.00 L 202.00 79.00 L 203.00 78.00 L 203.00 75.00 L 204.00 74.00 L 204.00 70.00 L 205.00 69.00 L 205.00 67.00 Z
    M 182.00 67.00 L 181.00 68.00 L 181.00 72.00 L 180.00 73.00 L 180.00 77.00 L 179.00 78.00 L 179.00 81.00 L 178.00 82.00 L 178.00 86.00 L 177.00 87.00 L 177.00 90.00 L 192.00 90.00 L 192.00 87.00 L 183.00 87.00 L 182.00 86.00 L 182.00 85.00 L 183.00 84.00 L 183.00 80.00 L 184.00 79.00 L 184.00 76.00 L 185.00 75.00 L 185.00 71.00 L 186.00 70.00 L 186.00 67.00 Z
    M 170.00 67.00 L 164.00 67.00 L 164.00 68.00 L 161.00 72.00 L 158.00 79.00 L 156.00 81.00 L 153.00 88.00 L 151.00 90.00 L 157.00 90.00 L 158.00 87.00 L 160.00 85.00 L 167.00 85.00 L 168.00 86.00 L 168.00 89.00 L 169.00 90.00 L 173.00 90.00 L 173.00 86.00 L 172.00 85.00 L 172.00 78.00 L 171.00 77.00 L 171.00 71.00 L 170.00 70.00 Z
    M 166.00 73.00 L 167.00 74.00 L 167.00 80.00 L 166.00 81.00 L 163.00 81.00 L 162.00 80.00 L 162.00 79.00 Z
    M 155.00 67.00 L 150.00 67.00 L 147.00 74.00 L 145.00 76.00 L 145.00 77.00 L 141.00 84.00 L 140.00 83.00 L 140.00 75.00 L 139.00 74.00 L 139.00 67.00 L 134.00 67.00 L 134.00 70.00 L 135.00 71.00 L 135.00 78.00 L 136.00 79.00 L 136.00 86.00 L 137.00 87.00 L 137.00 90.00 L 143.00 90.00 L 143.00 89.00 L 145.00 87.00 L 145.00 86.00 L 146.00 85.00 L 149.00 78.00 L 151.00 76.00 L 151.00 75.00 L 152.00 74.00 Z
    M 20.00 45.00 L 20.00 49.00 L 21.00 50.00 L 21.00 51.00 L 22.00 52.00 L 23.00 52.00 L 26.00 55.00 L 28.00 55.00 L 30.00 57.00 L 32.00 57.00 L 33.00 58.00 L 34.00 58.00 L 35.00 59.00 L 37.00 59.00 L 38.00 60.00 L 41.00 60.00 L 42.00 61.00 L 46.00 61.00 L 47.00 62.00 L 51.00 62.00 L 52.00 63.00 L 84.00 63.00 L 85.00 62.00 L 92.00 62.00 L 93.00 61.00 L 99.00 61.00 L 100.00 60.00 L 105.00 60.00 L 106.00 59.00 L 108.00 59.00 L 99.00 59.00 L 98.00 60.00 L 75.00 60.00 L 74.00 59.00 L 62.00 59.00 L 61.00 58.00 L 54.00 58.00 L 53.00 57.00 L 48.00 57.00 L 47.00 56.00 L 48.00 55.00 L 58.00 55.00 L 59.00 54.00 L 67.00 54.00 L 67.00 53.00 L 63.00 53.00 L 62.00 52.00 L 58.00 52.00 L 57.00 51.00 L 53.00 51.00 L 52.00 50.00 L 49.00 50.00 L 48.00 49.00 L 45.00 49.00 L 44.00 48.00 L 42.00 48.00 L 41.00 47.00 L 36.00 46.00 L 35.00 45.00 L 34.00 45.00 L 31.00 43.00 L 29.00 43.00 L 28.00 42.00 L 22.00 42.00 Z
    M 226.00 59.00 L 226.00 60.00 L 228.00 58.00 L 228.00 57.00 L 230.00 55.00 L 230.00 54.00 L 236.00 48.00 L 237.00 48.00 L 239.00 46.00 L 240.00 46.00 L 243.00 44.00 L 245.00 44.00 L 246.00 43.00 L 248.00 43.00 L 249.00 42.00 L 262.00 42.00 L 263.00 43.00 L 268.00 44.00 L 270.00 46.00 L 273.00 47.00 L 281.00 55.00 L 281.00 56.00 L 283.00 58.00 L 284.00 61.00 L 284.00 58.00 L 283.00 57.00 L 283.00 56.00 L 282.00 55.00 L 282.00 53.00 L 280.00 51.00 L 280.00 50.00 L 273.00 43.00 L 272.00 43.00 L 265.00 39.00 L 262.00 39.00 L 261.00 38.00 L 250.00 38.00 L 249.00 39.00 L 246.00 39.00 L 245.00 40.00 L 243.00 40.00 L 242.00 41.00 L 239.00 42.00 L 237.00 44.00 L 236.00 44.00 L 232.00 48.00 L 232.00 49.00 L 229.00 52.00 L 229.00 53.00 L 227.00 56.00 L 227.00 58.00 Z
    M 25.00 33.00 L 71.00 40.00 L 113.00 40.00 L 167.00 36.00 L 131.00 45.00 L 102.00 49.00 L 75.00 49.00 L 45.00 44.00 L 81.00 52.00 L 118.00 52.00 L 197.00 35.00 L 228.00 31.00 L 273.00 31.00 L 291.00 36.00 L 267.00 27.00 L 237.00 24.00 L 102.00 33.00 L 68.00 31.00 L 103.00 14.00 L 131.00 7.00 L 172.00 9.00 L 212.00 20.00 L 185.00 9.00 L 145.00 2.00 L 107.00 6.00 L 54.00 28.00 Z
    M 170.00 35.00 L 171.00 34.00 L 172.00 35.00 L 171.00 36.00 Z" fill="#1700ad" fill-rule="evenodd"/>
</svg>
